<svg xmlns="http://www.w3.org/2000/svg" xmlns:xlink="http://www.w3.org/1999/xlink" viewBox="0 0 133.71 24.85"><defs><style>.cls-1,.cls-3,.cls-4{fill:none;}.cls-2{clip-path:url(#clip-path);}.cls-3{stroke:#000;stroke-miterlimit:10;stroke-width:1.18px;}.cls-4{stroke:#fff;stroke-linecap:round;stroke-linejoin:round;stroke-width:1.54px;}.cls-5{fill:#ea1d2d;}.cls-6{clip-path:url(#clip-path-3);}.cls-7{fill:#fff;}</style><clipPath id="clip-path" transform="translate(0 0)"><rect class="cls-1" width="133.71" height="24.85"/></clipPath><clipPath id="clip-path-3" transform="translate(0 0)"><path class="cls-1" d="M112.57,13a6.27,6.27,0,1,0,6.27-6.27A6.27,6.27,0,0,0,112.57,13"/></clipPath></defs><title>Asset 3</title><g id="Layer_2" data-name="Layer 2"><g id="Layer_1-2" data-name="Layer 1"><g class="cls-2"><path d="M5.32,24.26H128.39a4.73,4.73,0,0,0,4.73-4.73V5.33A4.73,4.73,0,0,0,128.39.59H5.32A4.73,4.73,0,0,0,.59,5.33v14.2a4.73,4.73,0,0,0,4.73,4.73" transform="translate(0 0)"/><rect class="cls-3" x="0.59" y="0.59" width="132.53" height="23.67" rx="4.73" ry="4.73"/></g><line class="cls-4" x1="14.79" y1="18.6" x2="14.79" y2="7.03"/><line class="cls-4" x1="28.99" y1="18.6" x2="28.99" y2="7.03"/><line class="cls-4" x1="43.19" y1="18.6" x2="43.19" y2="7.03"/><g class="cls-2"><path class="cls-5" d="M125.1,13a6.27,6.27,0,1,1-6.27-6.27A6.27,6.27,0,0,1,125.1,13" transform="translate(0 0)"/></g><g class="cls-6"><path class="cls-7" d="M117.82,8.24a5.54,5.54,0,0,0-1,.17c-1.11.3-2.45,1.08-2.59,2.34,0,.21,0,.41,0,.62l-.87.07c0,.24,0,.48,0,.72l.88,0a29,29,0,0,0,.12,3.89,1.89,1.89,0,0,1,0,.49c0,.12-.23.18-.52.17l.36.45a26.27,26.27,0,0,0,3.86.38c0-.14,0-.28,0-.43-.85,0-1.24-.18-1.31-.35a1.79,1.79,0,0,1-.08-.53c-.06-1.31-.08-2.72-.06-4.14l1.45,0,.71-.33c0-.17,0-.33,0-.49l-2.14,0c0-.6,0-1.15.08-1.69a.64.64,0,0,1,.52-.63,2.52,2.52,0,0,1,1.12.3l.58.29c.1,0,.21,0,.27,0l.35-.4c.06-.09,0-.14,0-.18l-.73-.56a1.15,1.15,0,0,0-.61-.12h-.27m.81,5.28c3.09.27,4.27,1.1,4.21,2.27a1.51,1.51,0,0,1-1.4,1.28,1.58,1.58,0,0,1-1.59-.71l-.73-1.12c-.07-.12-.16,0-.24,0l-.55.53a.2.2,0,0,0-.05.28l.5,1.15a6.37,6.37,0,0,0,2.49.32,4.22,4.22,0,0,0,2.11-.8,3,3,0,0,0,1.21-2.28,2.71,2.71,0,0,0-.67-2c-.6-.64-1.61-1.19-3.68-1.32l.3-1c1.24,0,2.34.13,3.28.26.08-.35.12-.7.2-1L123.77,9c-.47,0-.94-.17-1.44-.23s-1.33-.14-2.06-.18c-.46,1.37-1,3.11-1.63,4.89" transform="translate(0 0)"/></g></g></g></svg>